<svg width="17" height="17" viewBox="0 0 17 17" fill="none" xmlns="http://www.w3.org/2000/svg">
<path d="M15.5 9.37489C15.286 10.9147 14.5717 12.3414 13.4671 13.4353C12.3624 14.5292 10.9288 15.2296 9.38696 15.4285C7.84514 15.6275 6.28067 15.314 4.93455 14.5363C3.58843 13.7586 2.53534 12.5599 1.9375 11.1249M1.5 14.6249V11.1249H5M1.5 7.62489C1.71399 6.08508 2.42831 4.65834 3.53294 3.56445C4.63757 2.47056 6.07121 1.7702 7.61304 1.57125C9.15486 1.37231 10.7193 1.68581 12.0654 2.46348C13.4116 3.24115 14.4647 4.43984 15.0625 5.87489M15.5 2.37489V5.87489H12" stroke="#083F46" stroke-width="1.5" stroke-linecap="round" stroke-linejoin="round"/>
</svg>
